<?xml version="1.0" encoding="UTF-8" standalone="no"?>
<!-- Created with Inkscape (http://www.inkscape.org/) -->

<svg
   version="1.1"
   id="svg9"
   xml:space="preserve"
   width="666.66669"
   height="666.66669"
   viewBox="0 0 666.66669 666.66669"
   sodipodi:docname="avatar.svg"
   inkscape:version="1.1.1 (3bf5ae0d25, 2021-09-20)"
   xmlns:inkscape="http://www.inkscape.org/namespaces/inkscape"
   xmlns:sodipodi="http://sodipodi.sourceforge.net/DTD/sodipodi-0.dtd"
   xmlns:xlink="http://www.w3.org/1999/xlink"
   xmlns="http://www.w3.org/2000/svg"
   xmlns:svg="http://www.w3.org/2000/svg"><defs
     id="defs13"><rect
   x="-86.337827"
   y="127.77998"
   width="69.645847"
   height="41.442157"
   id="rect28731" /><clipPath
   clipPathUnits="userSpaceOnUse"
   id="clipPath47"><path
     d="M 58.289,390.251 V 186.347 h 383.748 v 162.977 l -15.915,40.927 z"
     id="path45" /></clipPath><clipPath
   clipPathUnits="userSpaceOnUse"
   id="clipPath115"><path
     d="M 0,500 H 500 V 0 H 0 Z"
     id="path113" /></clipPath><clipPath
   clipPathUnits="userSpaceOnUse"
   id="clipPath543"><path
     d="M 0,500 H 500 V 0 H 0 Z"
     id="path541" /></clipPath><clipPath
   clipPathUnits="userSpaceOnUse"
   id="clipPath567"><path
     d="M 0,500 H 500 V 0 H 0 Z"
     id="path565" /></clipPath>
    
  
      
      
      
      
      
      
      
      
      
      
      
      
      
      
      
      
      
      
      
      
      
      
      
      
      
      
      
      
      
      
      
      
      
      
      
      
      
      
      
      
      
      
      
      
      
      
      
      
      
      
      
      
      
      
      
      
      
      
      
      
      
      
      
      
      
      
      
      
      
      
      
      
      
      
      
      
      
      
      
      
      
      
      
      
      
      
      
      
      
      
      
      
      
      
      
      
      
      
      
      
      
      
      
      
      
      
      
      
      
      
      
      
      
      
      
      
      
      
      
      
      
      
      
      
      
      
      
      
      
      
      
      
      
      
      
      
      
      
      
      
      
      
      
      
      
      
      
      
      
      
      
      
      
      
      
      
      
      
      
      
      
      
      
      
      
      
      
      
      
      
      
      
      
      
      
      
      
      
      
      
      
      
      
      
      
      
      
      
      
      
      
      
      
      
      
      
      
      
      
      
      
      
      
      
      
      
      
      
      
      
      
      
      
      
      
      
      
      
      
      
      
      
      
      
      
      
      
      
      
      
      
      
      
      
      
      
      
      
      
      
      
      
      
      
      
      
      
      
      
      
      
      
      
      
      
      
      
      
      
      
      
      
      
      
    </defs><sodipodi:namedview
     id="namedview11"
     pagecolor="#ffffff"
     bordercolor="#666666"
     borderopacity="1.0"
     inkscape:pageshadow="2"
     inkscape:pageopacity="0.0"
     inkscape:pagecheckerboard="0"
     showgrid="false"
     inkscape:zoom="0.8686807"
     inkscape:cx="464.49748"
     inkscape:cy="428.81118"
     inkscape:window-width="1920"
     inkscape:window-height="1027"
     inkscape:window-x="1592"
     inkscape:window-y="-8"
     inkscape:window-maximized="1"
     inkscape:current-layer="layer1"
     showguides="false"
     inkscape:snap-global="false" /><g
     inkscape:groupmode="layer"
     id="layer1"
     inkscape:label="cap1"
     style="display:inline"><g
       id="g143843"
       transform="matrix(2.4041522,0,0,2.4348181,-424.6712,-360.8153)"><path
         style="fill:#9dac93;fill-opacity:1;stroke-width:0.228109"
         sodipodi:type="inkscape:offset"
         inkscape:radius="5.0343199"
         inkscape:original="M 420.82422 155.41406 C 418.78707 157.95976 417.47929 161.28332 417.65234 164.55078 C 417.71154 167.69449 418.99046 170.58408 418.76367 173.77148 C 418.59855 175.04239 418.28844 176.53885 417.19531 177.31055 C 404.97552 187.5533 390.60879 194.17498 376.00586 197.93164 C 374.47374 198.38816 372.90825 198.52027 371.36133 198.81055 C 366.63646 199.65449 361.93973 200.93726 357.38867 202.78516 C 351.90066 204.97742 346.69574 208.1346 341.96094 212.00781 C 335.07221 217.55072 329.04789 224.35177 323.86328 231.76758 C 316.98409 241.60341 311.5227 252.46437 306.8418 263.58984 C 298.95537 261.78448 290.49276 261.82873 282.44922 264.51172 C 272.2014 267.83244 262.86498 275.59885 257.38867 285.85352 C 256.10041 288.10743 255.48145 290.72448 255.53125 293.27148 C 249.2601 298.29375 242.26991 302.02199 235.94141 306.94727 C 234.44779 308.15926 232.91815 309.40934 231.80859 311.06836 C 231.17637 311.99524 230.95946 313.21803 231.30664 314.24414 C 231.7864 315.74302 232.86492 316.82766 233.76172 318.01172 C 234.6634 319.21317 236.25186 319.43817 237.18945 320.59375 C 237.58062 321.08236 237.88029 321.79015 237.61914 322.48047 C 237.20812 323.58761 236.2916 324.35482 235.71875 325.36133 C 235.32697 326.07433 234.81797 326.72499 234.15625 327.15625 C 233.21302 327.86082 231.96123 328.4745 231.69531 329.81055 C 231.38858 331.19318 232.13327 332.37834 232.74023 333.44141 C 232.92827 333.83446 233.36847 334.36041 232.92578 334.80273 C 231.95079 335.74126 230.56144 335.98625 229.69141 337.08398 C 229.33888 337.50114 229.34378 338.0876 229.50391 338.56055 C 230.02137 340.32248 230.76506 342.10435 230.51562 344.06055 C 230.33514 345.55871 229.23261 346.66269 228.38867 347.80664 C 226.82152 349.86863 225.02318 351.86518 224.16992 354.39648 C 223.61792 355.93934 223.89983 357.56008 224.29492 359.02148 C 225.0785 361.96765 227.05089 364.36586 229.49023 365.76562 C 235.10915 367.94628 240.69982 370.20321 246.33398 372.33789 C 247.0351 374.18545 246.88906 376.30439 246.72656 378.32227 C 246.31249 382.45871 245.40423 386.55298 244.45312 390.61914 C 263.5734 397.92396 282.69739 405.21684 301.82227 412.51562 C 303.83694 401.72467 306.15121 390.95112 309.30078 380.38867 C 310.41818 377.00242 311.3756 373.37371 313.69336 370.61133 C 318.03726 365.04262 324.01666 361.58655 329.19141 357.10938 C 331.56144 355.10255 333.51752 352.59552 335.4375 350.10352 C 340.93546 342.86169 345.38094 334.56822 347.72266 325.6582 C 349.74653 318.03333 350.10824 309.98918 348.51953 302.53711 C 346.88488 294.70488 343.1564 287.66212 338.19336 282.00195 C 331.51536 274.37668 322.84287 269.06908 313.62305 265.60742 C 317.15327 256.23666 321.2475 247.04553 326.27539 238.41211 C 330.88535 230.51797 336.46813 223.19852 343.03516 217.10547 C 349.49103 211.10468 356.97562 206.33657 364.99609 203.81055 C 366.54605 203.28313 368.13592 203.01484 369.70703 202.625 C 379.02225 200.39107 388.2098 197.00016 396.87891 192.25586 C 397.43918 191.96979 398.00923 191.48516 398.63867 191.62695 C 401.14543 191.89724 403.20317 193.51141 404.92773 195.30664 C 407.3611 197.82566 409.61867 200.67588 412.7207 202.28711 C 415.90503 204.02041 419.70327 204.164 423.3125 203.45117 L 423.39062 203.24609 C 423.32123 197.13795 420.10375 191.3311 414.98438 189.08984 C 411.99426 187.91503 408.88117 186.61682 405.53711 187.04492 C 409.79428 184.30263 413.95266 181.29497 417.66992 177.67578 C 419.46401 176.19511 421.50339 174.96627 422.88477 172.96289 C 424.37074 170.81811 424.77652 168.15177 425.21094 165.64453 C 425.72403 161.51998 423.82683 157.55718 420.82422 155.41406 z M 361.99414 161.47656 C 361.46554 163.62149 360.74374 165.72298 359.85352 167.74805 C 358.29212 171.38705 356.10485 174.69366 354.50586 178.31055 C 353.36236 180.86058 352.77503 183.72896 353.18359 186.43359 C 353.76188 190.21315 355.45604 193.87135 358.42773 195.89648 C 361.00802 197.70488 364.12602 198.37299 367.16016 198.99219 C 366.25954 198.32471 365.30702 197.73534 364.44922 197.00391 C 362.70143 195.58315 361.28175 193.72773 360.1875 191.66797 C 359.31887 190.01809 358.94228 188.04587 359.13086 186.07422 C 359.35977 183.53258 360.11706 181.051 360.48633 178.52148 C 360.71466 177.16332 360.77393 175.79438 360.86133 174.43164 C 361.46086 178.2219 360.15421 182.09017 359.79492 185.9082 C 359.5057 188.49935 360.67518 190.82907 362.06641 192.68359 C 363.84316 194.93906 366.24767 196.43997 368.34766 198.30078 C 367.02177 195.40665 365.93622 192.28306 365.82812 188.92383 C 365.63705 184.78697 367.14589 180.67155 367.01367 176.53125 C 366.88306 170.95144 364.53545 165.99233 361.99414 161.47656 z M 322.93164 169.82812 C 321.97638 176.05809 319.69951 182.08235 316.64258 187.5957 C 315.01412 190.68072 313.14371 193.68463 312.12305 197.05859 C 311.30644 199.70489 311.28231 202.53444 311.91602 205.10742 C 312.73152 208.37401 314.05758 211.54812 316.29102 213.86133 C 319.30611 217.00901 323.56798 218.10046 327.50586 219.44531 C 325.00728 216.59059 322.57642 213.57646 320.99414 209.95508 C 319.95724 207.58825 319.24617 204.85228 319.8418 202.10352 C 320.49265 199.22819 322.23859 196.77984 323.25391 194.04102 C 325.29858 188.9728 325.49929 183.46802 325.25391 178.20703 C 325.96491 183.47218 325.73039 189.07823 323.88281 194.28125 C 323.01569 196.92122 321.62374 199.37188 320.91992 202.06641 C 320.24366 204.76108 321.04051 207.46368 322.22852 209.67578 C 324.06074 213.04029 326.69442 215.76333 329.53125 218.09961 C 327.9139 215.73402 327.05608 212.74366 327.1582 209.67188 C 327.28583 204.65166 329.15256 199.82647 330.47656 194.98828 C 331.78573 190.40604 332.74045 185.44161 331.51562 180.92578 C 330.22361 176.03721 326.70466 172.46731 322.93164 169.82812 z M 369.72656 217.93555 C 367.74061 217.91675 365.73682 218.15764 363.76758 218.70117 C 360.07634 219.68315 356.60905 221.59485 353.24805 223.61719 C 349.33764 225.98155 345.46188 228.46084 341.35547 230.34375 C 338.21676 231.81375 334.95508 232.86929 331.66016 233.62695 C 335.15057 236.05984 339.47139 236.94189 343.73828 236.64062 C 347.93741 236.36014 352.10311 235.08676 356.08398 233.33984 C 358.2523 232.39828 360.17497 230.87406 362.21289 229.62891 C 365.22044 227.71256 368.55591 226.50435 371.92578 226.11719 C 373.91673 225.92383 375.95324 225.72949 377.89844 226.07812 C 373.6937 226.18034 369.30659 226.61978 365.36133 228.75586 C 363.28646 229.88072 361.44679 231.47844 359.4668 232.79492 C 357.87597 233.86362 356.19608 234.75209 354.46484 235.45898 C 350.71437 236.97006 346.85394 238.28169 342.92578 238.58789 C 338.75701 238.95766 334.59121 238.07518 331.04688 235.97656 C 332.56005 239.86944 335.00079 243.35318 338.37891 245.45312 C 342.62097 248.14181 347.80445 248.6762 352.80859 248.30664 C 356.73877 247.98309 360.74357 247.34995 364.4707 245.56836 C 367.14276 244.31397 369.55161 242.43048 371.78906 240.37305 C 374.46142 237.91177 377.03452 235.31681 379.79492 232.97461 C 383.01696 230.19471 386.45172 227.73702 389.98828 225.50195 C 385.46929 222.67651 380.75127 220.06106 375.57812 218.72656 C 373.68068 218.23165 371.71251 217.9543 369.72656 217.93555 z M 287.82812 279.75586 C 297.03555 283.28014 306.25801 286.76501 315.45508 290.31641 C 318.98593 286.83589 322.4644 283.29474 325.96484 279.7793 C 327.04818 281.04749 328.10359 282.34672 329.17773 283.62695 C 326.31618 286.50556 323.45139 289.3792 320.58984 292.25781 C 325.62934 294.18368 330.67051 296.10688 335.71289 298.03125 C 332.12437 307.43415 328.53578 316.83343 324.94727 326.23633 C 315.73496 322.71278 306.51199 319.21665 297.30859 315.67578 C 293.79008 319.16619 290.30692 322.69515 286.8125 326.21289 C 285.72802 324.94167 284.6707 323.6432 283.5957 322.36523 C 286.45725 319.48662 289.32204 316.61103 292.18359 313.73242 C 287.14408 311.80655 282.10281 309.88572 277.06445 307.96289 C 277.7156 306.25065 278.36913 304.54242 279.02344 302.83398 C 276.74131 301.96303 274.46176 301.09284 272.18164 300.22266 C 274.46268 294.23966 276.74429 288.25566 279.02734 282.27344 C 281.31033 283.14212 283.59097 284.01459 285.87109 284.88477 L 287.82812 279.75586 z M 289.13281 283.17969 C 286.19286 290.87714 283.25429 298.57836 280.31836 306.27734 C 284.97502 308.05451 289.63579 309.8263 294.29102 311.61328 C 300.66047 305.22984 307.01571 298.82385 313.38086 292.43359 C 305.29813 289.3515 297.21382 286.2663 289.13281 283.17969 z M 280.33398 285.70898 C 278.70524 289.98277 277.07417 294.25705 275.44141 298.5293 C 276.96302 299.10742 278.48206 299.68689 280.00195 300.26953 C 281.63069 295.99574 283.26177 291.72147 284.89453 287.44922 L 280.33398 285.70898 z M 318.47461 294.37891 C 312.11032 300.76692 305.75681 307.16592 299.39453 313.55469 C 307.47554 316.6413 315.55657 319.71971 323.63672 322.80859 L 332.45117 299.71289 C 327.79077 297.93948 323.13329 296.15685 318.47461 294.37891 z M 330.77539 300.65234 C 328.20753 307.47129 325.58294 314.2724 322.99414 321.08594 C 319.9535 319.92292 316.91363 318.7638 313.875 317.60156 C 319.51563 311.9579 325.11353 306.26718 330.77539 300.65234 z M 265.05078 372.83594 C 266.81066 373.01286 268.09415 374.36479 269.41016 375.43945 C 270.59473 376.44841 271.76855 377.78892 273.42578 377.79492 C 274.05562 377.77882 274.40303 376.85949 275.0293 377.01562 C 274.71096 378.18144 273.79645 379.20093 272.7793 379.70117 C 271.79313 380.22877 270.75985 379.37521 269.80859 380.05859 C 267.80241 381.47386 266.53121 383.776 265.08008 385.78125 C 263.67118 387.7301 262.35071 389.82596 260.50781 391.33203 C 259.90402 391.85274 259.18102 392.16638 258.45117 392.33594 C 257.71717 392.29924 257.0618 391.95995 256.42188 391.64062 C 255.79655 390.98755 255.32655 390.08861 255.47656 389.06836 C 255.48556 388.04353 256.11989 386.95488 257.10352 386.76562 C 257.52828 386.90702 258.03033 387.05939 258.15625 387.5918 C 258.48678 388.63745 257.78245 389.82576 256.83398 390.23047 C 257.2887 390.61899 257.95591 390.91592 258.52148 390.45312 C 259.84819 389.41314 260.82541 387.94905 261.85352 386.58789 C 263.38915 384.4517 264.92753 382.26307 266.90234 380.57422 C 267.62621 379.9258 268.46121 379.4308 269.33984 379.13672 C 269.41624 379.07522 269.56813 378.95213 269.64453 378.89062 C 267.82586 377.43246 266.74968 374.99083 264.57812 374.03516 C 264.42903 374.57659 264.61122 375.14971 264.31836 375.66992 C 264.0562 376.5619 262.83068 377.1526 262.22461 376.45508 C 261.99722 376.1041 261.83615 375.65573 261.87695 375.20508 C 262.18004 373.68119 263.72348 372.70755 265.05078 372.83594 z M 255.54688 374.15234 C 256.16384 374.07954 256.76019 374.18354 257.30859 374.44727 C 258.45591 375.3669 258.84355 377.55204 257.50586 378.69922 C 257.20537 378.60012 256.93486 378.44494 256.69531 378.23438 C 256.71381 377.95655 256.72542 377.68005 256.73242 377.4082 C 257.01139 377.08729 257.27971 376.68131 257.72461 376.75781 C 257.94712 375.91546 257.30143 375.16372 256.57031 375.10742 C 255.72955 375.02482 254.9695 375.61221 254.25781 376.08398 C 252.90812 377.13592 251.79674 378.54355 250.91406 380.06641 C 250.38963 381.20538 249.75922 382.45656 250.0293 383.71484 C 250.19281 383.88344 250.35058 384.05838 250.50977 384.23828 C 251.36257 384.34358 252.25239 384.10166 252.97852 383.51367 C 252.73298 382.86049 252.92102 382.10102 253.5293 381.70117 C 253.82577 381.79877 254.10683 381.93537 254.37109 382.11133 C 254.34489 383.01825 253.63123 383.67817 252.96289 384.13281 C 252.03579 384.75292 250.8723 385.04689 249.88477 384.68555 C 248.87703 384.07561 248.75308 382.64748 249.00195 381.4707 C 249.54895 379.30169 250.80725 377.3369 252.39062 375.85352 C 253.31528 375.04084 254.38842 374.3474 255.54688 374.15234 z M 261.96094 379.03711 C 262.17093 378.96101 262.39332 378.95423 262.63281 379.04883 C 262.68411 379.16165 262.78854 379.38523 262.83984 379.49805 C 262.36207 380.82836 261.07213 381.49413 260.10352 382.34961 C 259.69637 382.86767 259.36126 383.43675 259.00977 384.00195 C 259.73737 384.1579 260.31999 383.48559 260.99219 383.25 C 260.47641 383.92604 259.72941 384.33493 258.99805 384.62305 C 258.64424 384.81439 258.32615 384.56835 258.00586 384.4668 C 258.06516 384.25113 258.18289 383.82309 258.24219 383.60742 C 257.6182 383.87954 256.9398 384.25248 256.32031 383.85547 C 256.37151 383.65487 256.47614 383.25724 256.52734 383.05664 C 256.16496 383.19807 255.80517 383.35579 255.44336 383.50781 C 255.29126 383.44201 255.13711 383.38127 254.98242 383.32227 C 254.68927 382.20283 255.57848 381.10741 256.375 380.4375 C 256.91129 379.96096 257.95165 379.64135 258.16602 380.53906 L 258.90625 380.45898 L 259.01758 380.83594 C 258.49995 381.69776 257.8043 382.43329 257.36328 383.34766 C 258.81057 383.49335 259.58746 381.71168 260.41211 380.64844 C 260.82673 380.10928 261.33096 379.26534 261.96094 379.03711 z M 262.28906 379.61133 C 262.13311 379.60633 261.98813 379.69243 261.88281 379.87305 C 261.50758 380.30746 261.15732 380.77288 260.92383 381.31836 C 261.53473 380.89361 262.17807 380.40802 262.50586 379.67578 C 262.43336 379.63598 262.35995 379.61373 262.28906 379.61133 z M 257.4668 380.41211 C 256.60691 380.98273 255.8714 381.85256 255.49805 382.87305 C 255.64013 382.89875 255.92737 382.94525 256.07031 382.96875 C 256.89973 382.45385 257.80434 381.7037 257.95898 380.62305 C 257.79455 380.54735 257.63267 380.47801 257.4668 380.41211 z M 269.875 384.02734 C 270.32763 384.02784 270.7588 384.1779 271.07031 384.51953 C 271.9221 386.02054 270.02325 388.40455 268.51953 387.70117 C 268.27617 387.60307 268.10605 387.39578 267.91211 387.22852 C 267.5267 387.85848 267.36441 389.01855 268.16602 389.25195 C 268.89243 389.47737 269.66505 389.06429 270.31641 388.66016 C 271.70784 387.83653 272.83828 386.58777 273.96875 385.39258 C 274.39006 385.54301 274.80934 385.70289 275.22461 385.86914 C 274.6827 386.9574 273.73358 387.77746 273.29297 388.91992 C 274.42126 387.95961 275.52723 386.86868 276.89258 386.38477 C 277.24462 386.25234 277.56348 386.42407 277.83203 386.625 C 277.57172 387.3312 277.25207 388.01364 276.9668 388.71289 C 277.69063 388.11885 278.43736 387.53831 279.2793 387.18359 C 279.61427 387.22859 279.91143 387.35901 280.16992 387.57422 C 279.58231 389.15012 278.49256 390.45484 277.51758 391.7793 C 277.41377 392.02718 277.31223 392.2806 277.20898 392.53906 C 277.27378 392.57416 277.4038 392.64183 277.4707 392.67773 C 278.21526 392.41536 278.95521 392.06901 279.61523 391.58789 C 280.16752 390.8403 280.6061 389.94121 281.41797 389.48438 C 282.25293 388.85244 283.56496 388.72786 284.15625 389.62695 C 284.65844 391.06706 283.25481 392.97937 281.82422 392.75977 C 281.43873 392.70847 281.15924 392.44734 280.92578 392.14844 C 280.45101 392.89193 280.45969 393.90178 281.18164 394.33789 C 282.9842 394.24619 284.50575 392.84075 285.82031 391.53711 C 285.76161 391.28678 285.69972 391.03589 285.63672 390.79688 L 285.63672 390.79492 C 285.89997 389.97847 286.70549 389.01585 287.5332 389.27734 C 287.75698 389.85488 287.2869 390.42613 287.11914 390.98633 C 287.6153 391.23008 288.40486 390.90823 288.60156 391.62305 C 287.47844 392.97385 286.24975 394.36095 285.70508 396.0957 C 286.17513 396.32948 286.66472 395.99254 287.10352 395.77148 C 287.6914 395.41306 288.34782 395.12739 288.79492 394.54688 C 289.65634 393.4355 290.81291 392.42849 292.13672 392.23438 C 292.86794 392.14567 293.29469 392.84969 293.47852 393.50781 C 293.82021 392.59443 294.54416 393.32292 295.08203 393.44531 C 294.49795 394.49934 293.73095 395.42353 293.07227 396.42578 C 292.69204 397.04217 292.11042 397.56872 292.01172 398.33398 C 293.66691 397.98918 295.20844 396.82088 296.30664 395.39062 C 295.84747 394.40468 296.85417 393.44102 297.68945 393.16406 C 298.55971 393.33819 297.78295 394.39442 297.58594 394.95898 C 298.04076 395.20249 298.60765 395.03098 299.03516 395.33398 C 298.99286 395.46289 298.91039 395.7243 298.86719 395.85547 C 298.00411 396.8626 297.20499 397.94359 296.55078 399.12109 C 296.40617 399.46995 296.03742 399.92957 296.42188 400.21875 C 297.08878 400.12365 297.67381 399.68028 298.27344 399.35742 C 299.54103 398.70151 300.07247 397.15028 301.0957 396.17578 C 301.27138 396.5899 301.62686 396.8363 301.94531 397.10547 C 301.12767 398.40968 300.09878 399.56732 299.39648 400.94922 C 300.58697 401.31549 301.53267 399.89486 302.69141 399.70508 C 302.51459 400.48199 301.7134 400.76412 301.18945 401.23242 C 300.09382 401.88404 298.68317 402.79398 297.57227 401.92969 C 297.56827 401.39722 297.70624 400.87738 297.87109 400.37305 C 297.12244 400.74265 296.35229 401.27322 295.5293 401.22852 C 294.98533 401.19442 294.58315 400.58511 294.77734 400.00391 C 295.22921 398.37362 296.63012 397.35954 297.53906 396.0332 C 297.27676 395.9305 297.01352 395.8384 296.74805 395.75 C 295.34808 397.25935 293.76145 398.69294 291.88672 399.34766 C 291.27021 399.59414 290.61973 399.46211 290.13086 399.06055 C 290.17336 398.60538 290.25888 398.15452 290.36914 397.71484 C 289.61878 398.07083 288.73062 398.79617 287.95703 398.31445 C 287.46654 397.7724 287.5998 396.93535 287.81445 396.24023 C 286.88852 396.44114 286.08544 397.28019 285.11719 397.24219 C 284.54192 397.22989 284.10088 396.61534 284.29883 395.99414 C 284.7243 394.34859 286.19261 393.39815 287.04102 392.02539 C 286.78675 391.92579 286.5303 391.83499 286.27344 391.74219 C 284.8525 393.28238 283.21604 394.74653 281.28711 395.32617 C 280.62467 395.5603 279.82459 395.46016 279.42773 394.84766 C 279.0145 394.24186 279.18122 393.41296 279.26562 392.69141 C 278.04152 393.14893 276.74034 394.30596 275.47461 393.58203 C 275.42621 393.41333 275.37521 393.2459 275.32422 393.08398 C 275.67237 391.5747 276.8383 390.54119 277.57812 389.25391 C 277.14387 389.15551 276.79311 389.53624 276.4668 389.81836 C 275.42636 390.76557 274.40642 391.74721 273.45117 392.79688 C 273.11596 392.67413 272.78133 392.55136 272.44727 392.43164 C 273.33989 391.05762 274.29989 389.73316 275.30469 388.45117 C 275.07684 388.33056 274.79367 388.26856 274.58594 388.52344 C 273.32437 389.58571 272.11396 390.72223 270.9043 391.85352 C 270.58002 391.71422 270.25542 391.58457 269.92969 391.45508 C 270.71335 390.30626 271.67074 389.25582 272.23633 387.9668 C 270.77007 389.04678 269.24378 390.42853 267.44727 390.48633 C 266.43569 390.42923 266.0463 389.28455 266.18164 388.30273 C 266.46607 386.77949 267.28147 385.25428 268.55664 384.42773 C 268.94953 384.1762 269.42237 384.02684 269.875 384.02734 z M 270.33594 384.76367 C 269.35664 384.9235 268.59876 385.8349 268.14453 386.75977 C 269.05589 387.2604 270.3424 386.4038 270.64258 385.33984 C 270.53966 385.14516 270.43656 384.9523 270.33594 384.76367 z M 283.18555 389.69141 C 282.28368 389.95591 281.52811 390.81082 281.17578 391.74609 C 282.1179 392.19629 283.387 391.31171 283.60742 390.19141 C 283.46544 390.02067 283.32523 389.8561 283.18555 389.69141 z M 292.32422 393.2168 C 291.28513 393.49108 290.56453 394.45243 289.89648 395.31641 C 289.47032 395.92046 288.96639 396.564 288.90039 397.33398 C 289.35502 397.84939 290.01691 397.25978 290.4707 396.95117 C 291.4674 396.14268 292.62537 395.16215 292.82617 393.76758 C 292.78057 393.66988 292.69208 393.47075 292.64648 393.37305 C 292.56468 393.33405 292.40402 393.255 292.32422 393.2168 z M 302.87109 393.90234 C 303.13915 393.96434 303.34554 394.2431 303.49414 394.48242 C 303.61071 395.24438 303.23787 395.99071 302.56445 396.33203 C 302.23931 396.19499 301.77329 396.1843 301.64844 395.76367 C 301.59534 395.45069 301.6242 395.12819 301.625 394.8125 C 301.90083 394.46967 302.14075 394.00468 302.58203 393.92188 C 302.68533 393.88488 302.78174 393.88164 302.87109 393.90234 z "
         xlink:href="#path1646"
         id="path86964"
         inkscape:href="#path1646"
         d="m 420.13086,150.42773 a 5.0348233,5.0348233 0 0 0 -3.23828,1.8418 c -2.69972,3.37367 -4.49109,7.71138 -4.26367,12.46289 0.0981,4.31086 1.16688,6.93607 1.0957,8.56641 -0.0502,0.20594 -0.0941,0.37505 -0.10742,0.40625 -11.47959,9.52584 -25.00611,15.78625 -38.86524,19.35156 a 5.0348233,5.0348233 0 0 0 -0.18359,0.0508 c -0.56674,0.16887 -1.67371,0.32768 -2.64063,0.48242 -0.57859,-1.64913 -1.01817,-3.26851 -1.06835,-4.82812 a 5.0348233,5.0348233 0 0 0 -0.002,-0.0703 c -0.12747,-2.75992 1.35634,-6.84577 1.18555,-12.30469 -0.16915,-6.9082 -3.00178,-12.65165 -5.66211,-17.37891 a 5.0348233,5.0348233 0 0 0 -9.27539,1.26367 c -0.45663,1.85289 -1.08402,3.68297 -1.86133,5.45118 a 5.0348233,5.0348233 0 0 0 -0.0176,0.041 c -1.3242,3.08618 -3.49464,6.37521 -5.32031,10.50195 -1.45278,3.24546 -2.29378,6.99693 -1.70117,10.91993 a 5.0348233,5.0348233 0 0 0 0.002,0.01 c 0.64005,4.1832 2.44508,8.47976 5.95703,11.58985 -5.48783,2.35991 -10.68203,5.47773 -15.3789,9.31836 -2.06951,1.66628 -4.03718,3.45216 -5.94727,5.30273 -0.4074,-1.10489 -0.69069,-2.29548 -0.64844,-3.56641 a 5.0348233,5.0348233 0 0 0 0.002,-0.0391 c 0.0976,-3.84081 1.71174,-8.2765 3.125,-13.42969 1.39389,-4.87877 2.69612,-10.69789 1.0625,-16.74414 -1.71682,-6.47965 -6.24974,-10.90709 -10.5625,-13.92383 a 5.0348233,5.0348233 0 0 0 -7.86133,3.36133 c -0.84732,5.52598 -2.89799,11.00949 -5.71485,16.08985 a 5.0348233,5.0348233 0 0 0 -0.0488,0.0918 c -1.51353,2.86728 -3.60599,6.13632 -4.88086,10.3418 -1.10241,3.58158 -1.12791,7.29299 -0.28321,10.72266 a 5.0348233,5.0348233 0 0 0 0.004,0.0156 c 0.93982,3.76456 2.49725,7.77234 5.63281,11.02344 3.61969,3.7747 7.82941,5.08555 11.31641,6.19531 -1.40942,1.786 -2.94051,3.47604 -4.24219,5.33789 -6.38617,9.13092 -11.41273,19.0532 -15.83594,29.12696 -7.50054,-1.13741 -15.38303,-0.82331 -23.02343,1.7207 -11.55032,3.74828 -21.78213,12.30293 -27.88282,23.67773 -1.25131,2.20504 -1.8585,4.60257 -2.17187,7.02735 -5.48355,4.13093 -11.76245,7.70432 -17.97461,12.53906 a 5.0348233,5.0348233 0 0 0 -0.0801,0.0625 c -1.49626,1.21413 -3.47881,2.75927 -5.12305,5.20508 -1.47824,2.17216 -2.03502,4.80876 -1.11914,7.5664 0.93062,2.87564 2.58544,4.41017 3.20704,5.22461 0.56525,0.75318 1.16628,1.27394 1.71874,1.6875 -0.0761,0.1298 -0.0272,0.006 -0.10937,0.15039 a 5.0348233,5.0348233 0 0 0 -0.0371,0.0664 c -0.12804,0.23302 -0.1879,0.19061 0.10156,0.002 a 5.0348233,5.0348233 0 0 0 -0.26562,0.1836 c -0.35342,0.26399 -3.54645,1.68684 -4.36524,5.65429 -0.33548,1.56499 -0.15253,2.89874 0.17383,4.03125 -0.38317,0.3207 -0.76774,0.62633 -1.14648,1.09375 -1.80908,2.19461 -1.61832,4.64912 -1.06836,6.27344 l -0.0625,-0.19726 c 0.62635,2.13271 0.88977,3.11505 0.84765,3.44531 a 5.0348233,5.0348233 0 0 0 -0.004,0.0351 c 0.0748,-0.62092 -0.0233,-0.21589 -1.1582,1.32813 -1.38808,1.82108 -3.66262,4.20569 -4.94141,7.96484 -1.08479,3.08234 -0.46381,5.80185 0.0156,7.57617 1.15061,4.31262 3.97791,7.75448 7.55079,9.80469 a 5.0348233,5.0348233 0 0 0 0.68359,0.32617 c 4.62385,1.79449 9.29674,3.64574 13.99805,5.46094 0.0244,0.64275 0.11956,0.94038 0.041,1.94727 -0.3765,3.72413 -1.21775,7.59324 -2.15625,11.60547 a 5.0348233,5.0348233 0 0 0 3.10547,5.84961 c 19.12219,7.30555 38.24701,14.598 57.37109,21.89648 a 5.0348233,5.0348233 0 0 0 6.74414,-3.7793 c 1.99411,-10.6808 4.27222,-21.25832 7.3379,-31.55078 1.17077,-3.54962 2.0913,-6.43192 3.4414,-8.04101 a 5.0348233,5.0348233 0 0 0 0.11133,-0.14063 c 3.5829,-4.59314 9.15323,-7.89111 14.80273,-12.77539 2.8943,-2.45575 5.0332,-5.25379 6.96094,-7.75586 a 5.0348233,5.0348233 0 0 0 0.0215,-0.0273 c 5.82458,-7.67206 10.59519,-16.52178 13.14062,-26.19922 2.20993,-8.32583 2.6298,-17.12563 0.85742,-25.44922 -1.82478,-8.73593 -5.9636,-16.53981 -11.46484,-22.81445 l -0.002,-0.002 c -6.13325,-7.00254 -13.74466,-12.05878 -21.81055,-15.71484 2.69792,-6.73857 5.70789,-13.2981 9.17773,-19.54687 1.65878,2.4415 3.71457,4.64682 6.35547,6.29296 5.54935,3.50994 11.87013,4.02747 17.47852,3.61328 a 5.0348233,5.0348233 0 0 0 0.041,-0.004 c 4.17955,-0.34408 8.83156,-1.02735 13.39844,-3.20508 3.36849,-1.58326 6.14488,-3.80354 8.57813,-6.04102 a 5.0348233,5.0348233 0 0 0 0.002,-0.002 c 2.78487,-2.5649 5.31502,-5.10976 7.85351,-7.26367 a 5.0348233,5.0348233 0 0 0 0.0312,-0.0254 c 2.99339,-2.58262 6.22169,-4.89819 9.59375,-7.0293 a 5.0348233,5.0348233 0 0 0 -0.0215,-8.52539 c -4.66677,-2.91783 -9.81582,-5.82905 -15.80664,-7.37695 -6.2e-4,-1.6e-4 -0.001,1.6e-4 -0.002,0 -2.27509,-0.59326 -4.65168,-0.93025 -7.07422,-0.95313 -2.4154,-0.0229 -4.8801,0.27009 -7.31641,0.93946 -4.49586,1.19889 -8.3383,3.37519 -11.80469,5.46093 a 5.0348233,5.0348233 0 0 0 -0.01,0.006 c -2.26801,1.37132 -4.44244,2.68655 -6.58203,3.91211 0.79744,-0.81165 1.57036,-1.65552 2.39843,-2.42382 a 5.0348233,5.0348233 0 0 0 0.004,-0.004 c 6.00872,-5.58516 12.89986,-9.92938 20.04492,-12.17969 a 5.0348233,5.0348233 0 0 0 0.10938,-0.0371 c 1.03941,-0.35369 2.46947,-0.61124 4.26367,-1.05469 6e-4,-1.4e-4 0.001,1.5e-4 0.002,0 9.52988,-2.28555 18.95655,-5.76062 27.9043,-10.5957 0.66794,0.28538 1.48361,0.80093 2.50977,1.86914 a 5.0348233,5.0348233 0 0 0 0.01,0.01 c 2.18801,2.26502 4.70945,5.6518 9.05078,7.92187 4.54704,2.45872 9.54925,2.52921 13.92969,1.66406 a 5.0348233,5.0348233 0 0 0 3.73047,-3.14648 l 0.0781,-0.20508 a 5.0348233,5.0348233 0 0 0 0.32813,-1.84961 c -0.0879,-7.73806 -4.01229,-15.26388 -11.16797,-18.54687 1.32139,-1.09313 2.6654,-2.13225 3.92578,-3.35938 l -0.30664,0.27539 c 1.40383,-1.15858 4.00298,-2.62045 6.15234,-5.73632 2.34926,-3.39523 2.7229,-6.88492 3.14454,-9.31836 a 5.0348233,5.0348233 0 0 0 0.0351,-0.23829 c 0.74953,-6.02517 -1.88404,-11.68384 -6.45898,-14.94921 a 5.0348233,5.0348233 0 0 0 -3.61719,-0.88868 z m -54.66211,28.82032 c 0.0102,-0.0926 -0.005,-0.0127 -0.0156,0.0859 0.005,-0.0357 0.0104,-0.0501 0.0156,-0.0859 z m -10.67773,6.10156 c -0.001,0.0103 0.001,0.019 0,0.0293 -0.002,0.0224 -0.006,0.0361 -0.008,0.0586 z m -26.81641,10.44141 c 0.005,-0.0178 0.009,-0.044 -0.0391,0.0918 0.0164,-0.0438 0.0227,-0.0476 0.0391,-0.0918 z m 71.32031,0.88086 -0.12695,0.0684 c 0.0663,-0.0339 0.0123,-0.0108 0.0703,-0.041 0.0185,-0.0101 0.0382,-0.0172 0.0566,-0.0273 z m -43.75586,3.34765 c 0.0103,0.007 0.021,0.0104 0.0312,0.0176 0.008,0.006 0.0132,0.0139 0.0215,0.0195 z m -98.58203,170.06836 0.10547,0.01 c -0.0246,-0.002 -0.0401,0.004 -0.0645,0.002 -0.0149,-0.001 -0.0261,-0.0106 -0.041,-0.0117 z m 47.27735,21.61523 c 0.63929,0.36528 1.86176,1.3538 2.24023,2.62891 l 0.13672,0.58985 c 0.0926,0.54588 0.0473,0.51811 0.0488,-0.0957 l -1.04297,2.94336 c -0.26306,0.26312 -0.81927,0.637 -1.64063,0.91016 -0.44723,0.12188 -0.93069,0.0968 -1.42383,0.0801 a 5.0348233,5.0348233 0 0 0 -0.50195,-0.79297 5.0348233,5.0348233 0 0 0 -1.83789,-6.04883 c 0.0332,-0.0183 0.0421,-0.0589 0.0762,-0.0762 z m -37.56055,2.35743 c 0.018,0.006 0.0309,0.002 0.0488,0.008 0.012,0.004 0.0231,0.0141 0.0351,0.0176 z m -4.96485,0.28906 -0.082,0.0664 c 0.0222,-0.0174 0.0307,-0.0353 0.0527,-0.0527 0.008,-0.007 0.0211,-0.007 0.0293,-0.0137 z" /><path
         id="path1646"
         style="fill:#3e4837;fill-opacity:1;stroke-width:0.228109"
         d="m 420.82422,155.41406 c -2.03715,2.5457 -3.34493,5.86926 -3.17188,9.13672 0.0592,3.14371 1.33812,6.0333 1.11133,9.2207 -0.16512,1.27091 -0.47523,2.76737 -1.56836,3.53907 -12.21979,10.24275 -26.58652,16.86443 -41.18945,20.62109 -1.53212,0.45652 -3.09761,0.58863 -4.64453,0.87891 -4.72487,0.84394 -9.4216,2.12671 -13.97266,3.97461 -5.48801,2.19226 -10.69293,5.34944 -15.42773,9.22265 -6.88873,5.54291 -12.91305,12.34396 -18.09766,19.75977 -6.87919,9.83583 -12.34058,20.69679 -17.02148,31.82226 -7.88643,-1.80536 -16.34904,-1.76111 -24.39258,0.92188 -10.24782,3.32072 -19.58424,11.08713 -25.06055,21.3418 -1.28826,2.25391 -1.90722,4.87096 -1.85742,7.41796 -6.27115,5.02227 -13.26134,8.75051 -19.58984,13.67579 -1.49362,1.21199 -3.02326,2.46207 -4.13282,4.12109 -0.63222,0.92688 -0.84913,2.14967 -0.50195,3.17578 0.47976,1.49888 1.55828,2.58352 2.45508,3.76758 0.90168,1.20145 2.49014,1.42645 3.42773,2.58203 0.39117,0.48861 0.69084,1.1964 0.42969,1.88672 -0.41102,1.10714 -1.32754,1.87435 -1.90039,2.88086 -0.39178,0.713 -0.90078,1.36366 -1.5625,1.79492 -0.94323,0.70457 -2.19502,1.31825 -2.46094,2.6543 -0.30673,1.38263 0.43796,2.56779 1.04492,3.63086 0.18804,0.39305 0.62824,0.919 0.18555,1.36132 -0.97499,0.93853 -2.36434,1.18352 -3.23437,2.28125 -0.35253,0.41716 -0.34763,1.00362 -0.1875,1.47657 0.51746,1.76193 1.26115,3.5438 1.01171,5.5 -0.18049,1.49816 -1.28301,2.60214 -2.12695,3.74609 -1.56715,2.06199 -3.36549,4.05854 -4.21875,6.58984 -0.552,1.54286 -0.27009,3.1636 0.125,4.625 0.78358,2.94617 2.75597,5.34438 5.19531,6.74414 5.61892,2.18066 11.20959,4.43759 16.84375,6.57227 0.70112,1.84756 0.55508,3.9665 0.39258,5.98438 -0.41407,4.13644 -1.32233,8.23071 -2.27344,12.29687 19.12028,7.30482 38.24427,14.59769 57.36915,21.89648 2.01467,-10.79095 4.32894,-21.5645 7.47851,-32.12695 1.1174,-3.38625 2.07482,-7.01496 4.39258,-9.77734 4.3439,-5.56871 10.3233,-9.02478 15.49805,-13.50195 2.37003,-2.00683 4.32611,-4.51386 6.24609,-7.00586 5.49796,-7.24183 9.94344,-15.5353 12.28516,-24.44532 2.02387,-7.62487 2.38558,-15.66902 0.79687,-23.12109 -1.63465,-7.83223 -5.36313,-14.87499 -10.32617,-20.53516 -6.678,-7.62527 -15.35049,-12.93287 -24.57031,-16.39453 3.53022,-9.37076 7.62445,-18.56189 12.65234,-27.19531 4.60996,-7.89414 10.19274,-15.21359 16.75977,-21.30664 6.45587,-6.00079 13.94046,-10.7689 21.96093,-13.29492 1.54996,-0.52742 3.13983,-0.79571 4.71094,-1.18555 9.31522,-2.23393 18.50277,-5.62484 27.17188,-10.36914 0.56027,-0.28607 1.13032,-0.7707 1.75976,-0.62891 2.50676,0.27029 4.5645,1.88446 6.28906,3.67969 2.43337,2.51902 4.69094,5.36924 7.79297,6.98047 3.18433,1.7333 6.98257,1.87689 10.5918,1.16406 l 0.0781,-0.20508 c -0.0694,-6.10814 -3.28687,-11.91499 -8.40624,-14.15625 -2.99011,-1.17481 -6.10321,-2.47302 -9.44727,-2.04492 4.25717,-2.74229 8.41555,-5.74995 12.13281,-9.36914 1.79409,-1.48067 3.83347,-2.70951 5.21485,-4.71289 1.48597,-2.14478 1.89175,-4.81112 2.32617,-7.31836 0.51309,-4.12455 -1.38411,-8.08735 -4.38672,-10.23047 z m -58.83008,6.0625 c -0.5286,2.14493 -1.2504,4.24642 -2.14062,6.27149 -1.5614,3.639 -3.74867,6.94561 -5.34766,10.5625 -1.1435,2.55003 -1.73083,5.41841 -1.32227,8.12304 0.57829,3.77956 2.27245,7.43776 5.24414,9.46289 2.58029,1.8084 5.69829,2.47651 8.73243,3.09571 -0.90062,-0.66748 -1.85314,-1.25685 -2.71094,-1.98828 -1.74779,-1.42076 -3.16747,-3.27618 -4.26172,-5.33594 -0.86863,-1.64988 -1.24522,-3.6221 -1.05664,-5.59375 0.22891,-2.54164 0.9862,-5.02322 1.35547,-7.55274 0.22833,-1.35816 0.2876,-2.7271 0.375,-4.08984 0.59953,3.79026 -0.70712,7.65853 -1.06641,11.47656 -0.28922,2.59115 0.88026,4.92087 2.27149,6.77539 1.77675,2.25547 4.18126,3.75638 6.28125,5.61719 -1.32589,-2.89413 -2.41144,-6.01772 -2.51954,-9.37695 -0.19107,-4.13686 1.31777,-8.25228 1.18555,-12.39258 -0.13061,-5.57981 -2.47822,-10.53892 -5.01953,-15.05469 z m -39.0625,8.35156 c -0.95526,6.22996 -3.23213,12.25423 -6.28906,17.76758 -1.62846,3.08502 -3.49887,6.08893 -4.51953,9.46289 -0.81661,2.6463 -0.84074,5.47585 -0.20703,8.04883 0.8155,3.26659 2.14156,6.4407 4.375,8.75391 3.01509,3.14768 7.27696,4.23913 11.21484,5.58398 -2.49858,-2.85472 -4.92944,-5.86885 -6.51172,-9.49023 -1.0369,-2.36683 -1.74797,-5.1028 -1.15234,-7.85156 0.65085,-2.87533 2.39679,-5.32368 3.41211,-8.0625 2.04467,-5.06822 2.24538,-10.573 2,-15.83399 0.711,5.26515 0.47648,10.8712 -1.3711,16.07422 -0.86712,2.63997 -2.25907,5.09063 -2.96289,7.78516 -0.67626,2.69467 0.12059,5.39727 1.3086,7.60937 1.83222,3.36451 4.4659,6.08755 7.30273,8.42383 -1.61735,-2.36559 -2.47517,-5.35594 -2.37305,-8.42773 0.12763,-5.02022 1.99436,-9.84541 3.31836,-14.6836 1.30917,-4.58224 2.26389,-9.54667 1.03906,-14.0625 -1.29201,-4.88857 -4.81096,-8.45847 -8.58398,-11.09766 z m 46.79492,48.10743 c -1.98595,-0.0188 -3.98974,0.22209 -5.95898,0.76562 -3.69124,0.98198 -7.15853,2.89368 -10.51953,4.91602 -3.91041,2.36436 -7.78617,4.84365 -11.89258,6.72656 -3.13871,1.47 -6.40039,2.52554 -9.69531,3.2832 3.49041,2.43289 7.81123,3.31493 12.07812,3.01367 4.19913,-0.28049 8.36483,-1.55386 12.3457,-3.30078 2.16832,-0.94156 4.09099,-2.46578 6.12891,-3.71093 3.00755,-1.91635 6.34302,-3.12456 9.71289,-3.51172 1.99095,-0.19336 4.02746,-0.38773 5.97266,-0.0391 -4.20474,0.10221 -8.59185,0.54166 -12.53711,2.67774 -2.07487,1.12486 -3.91454,2.72258 -5.89453,4.03906 -1.59083,1.0687 -3.27072,1.95717 -5.00196,2.66406 -3.75047,1.51108 -7.6109,2.82271 -11.53906,3.12891 -4.16877,0.36977 -8.33457,-0.51271 -11.8789,-2.61133 1.51318,3.89288 3.95391,7.37662 7.33203,9.47656 4.24206,2.68868 9.42554,3.22308 14.42968,2.85352 3.93018,-0.32355 7.93498,-0.95669 11.66211,-2.73828 2.67206,-1.25439 5.08091,-3.13788 7.31836,-5.19531 2.67236,-2.46128 5.24546,-5.05624 8.00586,-7.39844 3.22204,-2.7799 6.6568,-5.23759 10.19336,-7.47266 -4.51899,-2.82544 -9.23702,-5.44089 -14.41016,-6.77539 -1.89744,-0.49491 -3.86561,-0.77226 -5.85156,-0.79101 z m -81.89844,61.82031 c 9.20743,3.52428 18.42989,7.00915 27.62696,10.56055 3.53085,-3.48052 7.00932,-7.02167 10.50976,-10.53711 1.08334,1.26819 2.13875,2.56742 3.21289,3.84765 -2.86155,2.87861 -5.72634,5.75225 -8.58789,8.63086 5.0395,1.92587 10.08067,3.84907 15.12305,5.77344 -3.58852,9.4029 -7.17711,18.80218 -10.76562,28.20508 -9.21231,-3.52355 -18.43528,-7.01968 -27.63868,-10.56055 -3.51851,3.49041 -7.00167,7.01937 -10.49609,10.53711 -1.08448,-1.27122 -2.1418,-2.56969 -3.2168,-3.84766 2.86155,-2.87861 5.72634,-5.7542 8.58789,-8.63281 -5.03951,-1.92587 -10.08078,-3.8467 -15.11914,-5.76953 0.65115,-1.71224 1.30468,-3.42047 1.95899,-5.12891 -2.28213,-0.87095 -4.56168,-1.74114 -6.8418,-2.61132 2.28104,-5.983 4.56265,-11.967 6.8457,-17.94922 2.28299,0.86868 4.56363,1.74115 6.84375,2.61133 z m 1.30469,3.42383 c -2.93995,7.69745 -5.87852,15.39867 -8.81445,23.09765 4.65666,1.77717 9.31743,3.54896 13.97266,5.33594 6.36945,-6.38344 12.72469,-12.78943 19.08984,-19.17969 -8.08273,-3.08209 -16.16704,-6.16729 -24.24805,-9.2539 z m -8.79883,2.52929 c -1.62874,4.27379 -3.25981,8.54807 -4.89257,12.82032 1.52161,0.57812 3.04065,1.15759 4.56054,1.74023 1.62874,-4.27379 3.25982,-8.54806 4.89258,-12.82031 z m 38.14063,8.66993 c -6.36429,6.38801 -12.7178,12.78701 -19.08008,19.17578 8.08101,3.08661 16.16204,6.16502 24.24219,9.2539 l 8.81445,-23.0957 c -4.6604,-1.77341 -9.31788,-3.55604 -13.97656,-5.33398 z m 12.30078,6.27343 c -2.56786,6.81895 -5.19245,13.62006 -7.78125,20.4336 -3.04064,-1.16302 -6.08051,-2.32214 -9.11914,-3.48438 5.64063,-5.64366 11.23853,-11.33438 16.90039,-16.94922 z m -65.72461,72.1836 c 1.75988,0.17692 3.04337,1.52885 4.35938,2.60351 1.18457,1.00896 2.35839,2.34947 4.01562,2.35547 0.62984,-0.0161 0.97725,-0.93543 1.60352,-0.7793 -0.31834,1.16582 -1.23285,2.18531 -2.25,2.68555 -0.98617,0.5276 -2.01945,-0.32596 -2.97071,0.35742 -2.00618,1.41527 -3.27738,3.71741 -4.72851,5.72266 -1.4089,1.94885 -2.72937,4.04471 -4.57227,5.55078 -0.60379,0.52071 -1.32679,0.83435 -2.05664,1.00391 -0.734,-0.0367 -1.38937,-0.37599 -2.02929,-0.69532 -0.62533,-0.65307 -1.09533,-1.55201 -0.94532,-2.57226 0.009,-1.02483 0.64333,-2.11348 1.62696,-2.30274 0.42476,0.14139 0.92681,0.29377 1.05273,0.82618 0.33053,1.04565 -0.3738,2.23396 -1.32227,2.63867 0.45472,0.38852 1.12193,0.68544 1.6875,0.22265 1.32671,-1.03998 2.30393,-2.50407 3.33204,-3.86523 1.53563,-2.13619 3.07401,-4.32482 5.04882,-6.01367 0.72387,-0.64842 1.55887,-1.14342 2.4375,-1.4375 0.0764,-0.0615 0.22829,-0.18459 0.30469,-0.2461 -1.81867,-1.45816 -2.89485,-3.89979 -5.06641,-4.85546 -0.14909,0.54143 0.0331,1.11455 -0.25976,1.63476 -0.26216,0.89198 -1.48768,1.48268 -2.09375,0.78516 -0.22739,-0.35098 -0.38846,-0.79935 -0.34766,-1.25 0.30309,-1.52389 1.84653,-2.49753 3.17383,-2.36914 z m -9.5039,1.3164 c 0.61696,-0.0728 1.21331,0.0312 1.76171,0.29493 1.14732,0.91963 1.53496,3.10477 0.19727,4.25195 -0.30049,-0.0991 -0.571,-0.25427 -0.81055,-0.46484 0.0185,-0.27783 0.0301,-0.55433 0.0371,-0.82618 0.27897,-0.32091 0.54729,-0.72689 0.99219,-0.65039 0.22251,-0.84235 -0.42318,-1.59409 -1.1543,-1.65039 -0.84076,-0.0826 -1.60081,0.50479 -2.3125,0.97656 -1.34969,1.05194 -2.46107,2.45957 -3.34375,3.98243 -0.52443,1.13897 -1.15484,2.39015 -0.88476,3.64843 0.16351,0.1686 0.32128,0.34354 0.48047,0.52344 0.8528,0.1053 1.74262,-0.13662 2.46875,-0.72461 -0.24554,-0.65318 -0.0575,-1.41265 0.55078,-1.8125 0.29647,0.0976 0.57753,0.2342 0.84179,0.41016 -0.0262,0.90692 -0.73986,1.56684 -1.4082,2.02148 -0.9271,0.62011 -2.09059,0.91408 -3.07812,0.55274 -1.00774,-0.60994 -1.13169,-2.03807 -0.88282,-3.21485 0.547,-2.16901 1.80529,-4.1338 3.38867,-5.61718 0.92466,-0.81268 1.9978,-1.50612 3.15626,-1.70118 z m 6.41406,4.88477 c 0.20999,-0.0761 0.43238,-0.0829 0.67187,0.0117 0.0513,0.11282 0.15573,0.3364 0.20703,0.44922 -0.47777,1.33031 -1.76771,1.99608 -2.73632,2.85156 -0.40715,0.51806 -0.74226,1.08714 -1.09375,1.65234 0.7276,0.15595 1.31022,-0.51636 1.98242,-0.75195 -0.51578,0.67604 -1.26278,1.08493 -1.99414,1.37305 -0.35381,0.19134 -0.6719,-0.0547 -0.99219,-0.15625 0.0593,-0.21567 0.17703,-0.64371 0.23633,-0.85938 -0.62399,0.27212 -1.30239,0.64506 -1.92188,0.24805 0.0512,-0.2006 0.15583,-0.59823 0.20703,-0.79883 -0.36238,0.14143 -0.72217,0.29915 -1.08398,0.45117 -0.1521,-0.0658 -0.30625,-0.12654 -0.46094,-0.18554 -0.29315,-1.11944 0.59606,-2.21486 1.39258,-2.88477 0.53629,-0.47654 1.57665,-0.79615 1.79102,0.10156 l 0.74023,-0.0801 0.11133,0.37696 c -0.51763,0.86182 -1.21328,1.59735 -1.6543,2.51172 1.44729,0.14569 2.22418,-1.63598 3.04883,-2.69922 0.41462,-0.53916 0.91885,-1.3831 1.54883,-1.61133 z m 0.32812,0.57422 c -0.15595,-0.005 -0.30093,0.0811 -0.40625,0.26172 -0.37523,0.43441 -0.72549,0.89983 -0.95898,1.44531 0.6109,-0.42475 1.25424,-0.91034 1.58203,-1.64258 -0.0725,-0.0398 -0.14591,-0.062 -0.2168,-0.0644 z m -4.82226,0.80078 c -0.85989,0.57062 -1.5954,1.44045 -1.96875,2.46094 0.14208,0.0257 0.42932,0.0722 0.57226,0.0957 0.82942,-0.5149 1.73403,-1.26505 1.88867,-2.3457 -0.16443,-0.0757 -0.32631,-0.14504 -0.49218,-0.21094 z m 12.4082,3.61523 c 0.45263,5e-4 0.8838,0.15056 1.19531,0.49219 0.85179,1.50101 -1.04706,3.88502 -2.55078,3.18164 -0.24336,-0.0981 -0.41348,-0.30539 -0.60742,-0.47265 -0.38541,0.62996 -0.5477,1.79003 0.25391,2.02343 0.72641,0.22542 1.49903,-0.18766 2.15039,-0.59179 1.39143,-0.82363 2.52187,-2.07239 3.65234,-3.26758 0.42131,0.15043 0.84059,0.31031 1.25586,0.47656 -0.54191,1.08826 -1.49103,1.90832 -1.93164,3.05078 1.12829,-0.96031 2.23426,-2.05124 3.59961,-2.53515 0.35204,-0.13243 0.6709,0.0393 0.93945,0.24023 -0.26031,0.7062 -0.57996,1.38864 -0.86523,2.08789 0.72383,-0.59404 1.47056,-1.17458 2.3125,-1.5293 0.33497,0.045 0.63213,0.17542 0.89062,0.39063 -0.58761,1.5759 -1.67736,2.88062 -2.65234,4.20508 -0.10381,0.24788 -0.20535,0.5013 -0.3086,0.75976 0.0648,0.0351 0.19482,0.10277 0.26172,0.13867 0.74456,-0.26237 1.48451,-0.60872 2.14453,-1.08984 0.55229,-0.74759 0.99087,-1.64667 1.80274,-2.10351 0.83496,-0.63193 2.14699,-0.75652 2.73828,0.14257 0.50219,1.44011 -0.90144,3.35242 -2.33203,3.13282 -0.38549,-0.0513 -0.66498,-0.31243 -0.89844,-0.61133 -0.47477,0.74349 -0.46609,1.75334 0.25586,2.18945 1.80256,-0.0917 3.32411,-1.49714 4.63867,-2.80078 -0.0587,-0.25033 -0.12059,-0.50122 -0.18359,-0.74023 v -0.002 c 0.26325,-0.81645 1.06877,-1.77907 1.89648,-1.51758 0.22378,0.57754 -0.2463,1.14879 -0.41406,1.70899 0.49616,0.24375 1.28572,-0.0781 1.48242,0.63672 -1.12312,1.3508 -2.35181,2.7379 -2.89648,4.47265 0.47005,0.23378 0.95964,-0.10316 1.39844,-0.32422 0.58788,-0.35842 1.2443,-0.64409 1.6914,-1.2246 0.86142,-1.11138 2.01799,-2.11838 3.3418,-2.3125 0.73122,-0.0887 1.15797,0.61531 1.3418,1.27343 0.34169,-0.91338 1.06564,-0.18489 1.60351,-0.0625 -0.58408,1.05403 -1.35108,1.97822 -2.00976,2.98047 -0.38023,0.61639 -0.96185,1.14294 -1.06055,1.9082 1.65519,-0.3448 3.19672,-1.5131 4.29492,-2.94336 -0.45917,-0.98594 0.54753,-1.9496 1.38281,-2.22656 0.87026,0.17413 0.0935,1.23036 -0.10351,1.79492 0.45482,0.24351 1.02171,0.072 1.44922,0.375 -0.0423,0.12891 -0.12477,0.39032 -0.16797,0.52149 -0.86308,1.00713 -1.6622,2.08812 -2.31641,3.26562 -0.14461,0.34886 -0.51336,0.80848 -0.1289,1.09766 0.66691,-0.0951 1.25193,-0.53847 1.85156,-0.86133 1.26759,-0.65591 1.79903,-2.20714 2.82226,-3.18164 0.17568,0.41412 0.53116,0.66052 0.84961,0.92969 -0.81764,1.30421 -1.84653,2.46185 -2.54883,3.84375 1.19049,0.36627 2.13619,-1.05436 3.29493,-1.24414 -0.17682,0.77691 -0.97801,1.05904 -1.50196,1.52734 -1.09563,0.65162 -2.50628,1.56156 -3.61718,0.69727 -0.004,-0.53247 0.13397,-1.05231 0.29882,-1.55664 -0.74865,0.3696 -1.5188,0.90017 -2.34179,0.85547 -0.54397,-0.0341 -0.94615,-0.64341 -0.75196,-1.22461 0.45187,-1.63029 1.85278,-2.64437 2.76172,-3.97071 -0.2623,-0.1027 -0.52554,-0.1948 -0.79101,-0.2832 -1.39997,1.50935 -2.9866,2.94294 -4.86133,3.59766 -0.61651,0.24648 -1.26699,0.11445 -1.75586,-0.28711 0.0425,-0.45517 0.12802,-0.90603 0.23828,-1.34571 -0.75036,0.35599 -1.63852,1.08133 -2.41211,0.59961 -0.49049,-0.54205 -0.35723,-1.3791 -0.14258,-2.07422 -0.92593,0.20091 -1.72901,1.03996 -2.69726,1.00196 -0.57527,-0.0123 -1.01631,-0.62685 -0.81836,-1.24805 0.42547,-1.64555 1.89378,-2.59599 2.74219,-3.96875 -0.25427,-0.0996 -0.51072,-0.1904 -0.76758,-0.2832 -1.42094,1.54019 -3.0574,3.00434 -4.98633,3.58398 -0.66244,0.23413 -1.46252,0.13399 -1.85938,-0.47851 -0.41323,-0.6058 -0.24651,-1.4347 -0.16211,-2.15625 -1.2241,0.45752 -2.52528,1.61455 -3.79101,0.89062 -0.0484,-0.1687 -0.0994,-0.33613 -0.15039,-0.49805 0.34815,-1.50928 1.51408,-2.54279 2.2539,-3.83007 -0.43425,-0.0984 -0.78501,0.28233 -1.11132,0.56445 -1.04044,0.94721 -2.06038,1.92885 -3.01563,2.97852 -0.33521,-0.12275 -0.66984,-0.24552 -1.0039,-0.36524 0.89262,-1.37402 1.85262,-2.69848 2.85742,-3.98047 -0.22785,-0.12061 -0.51102,-0.18258 -0.71875,0.0723 -1.26157,1.06227 -2.47198,2.19879 -3.68164,3.33008 -0.32428,-0.1393 -0.64888,-0.26895 -0.97461,-0.39844 0.78366,-1.14882 1.74105,-2.19926 2.30664,-3.48828 -1.46626,1.07998 -2.99255,2.46173 -4.78906,2.51953 -1.01158,-0.0571 -1.40097,-1.20178 -1.26563,-2.1836 0.28443,-1.52324 1.09983,-3.04845 2.375,-3.875 0.39289,-0.25153 0.86573,-0.40089 1.31836,-0.40039 z m 0.46094,0.73633 c -0.9793,0.15983 -1.73718,1.07123 -2.19141,1.9961 0.91136,0.50063 2.19787,-0.35597 2.49805,-1.41993 -0.10292,-0.19468 -0.20602,-0.38754 -0.30664,-0.57617 z m 12.84961,4.92774 c -0.90187,0.2645 -1.65744,1.11941 -2.00977,2.05468 0.94212,0.4502 2.21122,-0.43438 2.43164,-1.55468 -0.14198,-0.17074 -0.28219,-0.33531 -0.42187,-0.5 z m 9.13867,3.52539 c -1.03909,0.27428 -1.75969,1.23563 -2.42774,2.09961 -0.42616,0.60405 -0.93009,1.24759 -0.99609,2.01757 0.45463,0.51541 1.11652,-0.0742 1.57031,-0.38281 0.9967,-0.80849 2.15467,-1.78902 2.35547,-3.18359 -0.0456,-0.0977 -0.13409,-0.29683 -0.17969,-0.39453 -0.0818,-0.039 -0.24246,-0.11805 -0.32226,-0.15625 z m 10.54687,0.68554 c 0.26806,0.062 0.47445,0.34076 0.62305,0.58008 0.11657,0.76196 -0.25627,1.50829 -0.92969,1.84961 -0.32514,-0.13704 -0.79116,-0.14773 -0.91601,-0.56836 -0.0531,-0.31298 -0.0242,-0.63548 -0.0234,-0.95117 0.27583,-0.34283 0.51575,-0.80782 0.95703,-0.89062 0.1033,-0.037 0.19971,-0.0402 0.28906,-0.0195 z" /><g
         id="#ffffffff"
         transform="matrix(0.20089163,0.07666807,-0.08628312,0.22608573,306.53915,104.77818)"><path
           fill="#ffffff"
           opacity="1"
           d="m 374.59,647.02 c 6.81,3.3 13.55,6.76 20.34,10.12 -7.66,15.33 -15.34,30.65 -23,45.98 25.09,0.01 50.18,0 75.28,0 0,41.59 0,83.17 0,124.76 -45.87,-0.03 -91.74,0.06 -137.6,-0.05 -9.5,18.66 -18.79,37.42 -28.14,56.15 -6.82,-3.31 -13.56,-6.77 -20.35,-10.12 7.66,-15.33 15.34,-30.65 23,-45.98 -25.09,-0.01 -50.18,0 -75.26,0 -0.01,-7.57 -0.01,-15.13 0,-22.69 -11.36,0 -22.71,0 -34.06,0 -0.01,-26.46 -0.01,-52.92 -0.01,-79.38 11.36,-0.01 22.71,0 34.06,0 0,-7.56 0,-15.13 0,-22.69 45.85,0.04 91.7,-0.09 137.55,0.07 9.57,-18.64 18.81,-37.44 28.19,-56.17 m -154.39,67.4 c -0.01,34.05 -0.01,68.11 0,102.16 23.18,0 46.37,-0.03 69.56,0.01 17.09,-34.03 34.08,-68.12 51.14,-102.17 -40.23,0.01 -80.47,0.01 -120.7,0 m 146.06,0 c -17.06,34.04 -34.06,68.11 -51.11,102.15 40.23,0.01 80.45,-0.01 120.68,0.01 0,-34.05 0,-68.11 0,-102.16 -23.19,0.02 -46.38,0 -69.57,0 m -180.1,22.73 c 0.01,18.9 0.01,37.8 0,56.7 7.57,-0.01 15.13,-0.01 22.7,0 -0.01,-18.9 -0.01,-37.8 0,-56.7 -7.57,0 -15.13,0 -22.7,0 z"
           id="path1735"
           style="fill:#bec8b7;fill-opacity:1" /><path
           fill="#ffffff"
           opacity="1"
           d="m 384.78,810.86 c 15.15,-30.1 30.04,-60.32 45.33,-90.34 0.15,30.11 0.02,60.23 0.07,90.35 -15.14,-0.01 -30.27,0 -45.4,-0.01 z"
           id="path1737"
           style="fill:#bec8b7;fill-opacity:1" /><path
           fill="#ffffff"
           opacity="1"
           d="m 264.23,1096.04 c 7.94,-1.91 15.76,1.42 23.26,3.63 6.82,2.15 14.14,5.6 21.35,3.18 2.71,-0.99 2.7,-5.05 5.68,-5.37 0.55,4.97 -1.74,10.25 -5.33,13.68 -3.41,3.49 -9.31,1.72 -12.31,5.76 -6.37,8.42 -8.08,19.18 -11.06,29.06 -2.89,9.6 -5.15,19.64 -10.66,28.17 -1.76,2.9 -4.38,5.17 -7.27,6.9 -3.25,0.94 -6.66,0.6 -9.97,0.31 -3.8,-1.6 -7.33,-4.38 -8.37,-8.54 -1.66,-3.97 -0.71,-9.11 3.25,-11.29 2.08,-0.08 4.51,-0.23 5.94,1.64 3.17,3.55 2.08,9.18 -1.37,12.14 2.62,0.83 6.01,0.99 7.7,-1.63 4.04,-5.97 5.86,-13.06 8.07,-19.83 3.13,-10.51 6.19,-21.23 11.97,-30.66 2.07,-3.57 4.87,-6.71 8.2,-9.14 0.23,-0.35 0.69,-1.05 0.92,-1.4 -10.32,-2.95 -19.04,-10.79 -30.06,-11.28 0.25,2.31 1.99,4.25 1.58,6.69 0.34,3.83 -4.01,7.92 -7.8,6.12 -1.57,-1.02 -3.01,-2.51 -3.58,-4.31 -1.21,-6.33 3.88,-12.37 9.86,-13.83 z"
           id="path1739"
           style="fill:#bec8b7;fill-opacity:1" /><path
           fill="#ffffff"
           opacity="1"
           d="m 225.12,1115.13 c 2.56,-1.19 5.32,-1.67 8.14,-1.46 6.51,1.86 11.82,9.73 7.91,16.13 -1.47,0.06 -2.9,-0.14 -4.29,-0.6 -0.38,-1.1 -0.79,-2.19 -1.21,-3.25 0.68,-1.65 1.17,-3.61 3.23,-3.97 -0.43,-3.58 -4.48,-5.53 -7.75,-4.67 -3.79,0.92 -6.12,4.31 -8.43,7.18 -4.12,6.05 -6.61,13.12 -7.92,20.3 -0.39,5.17 -1.06,10.93 2.2,15.39 0.99,0.41 1.97,0.85 2.96,1.31 3.88,-0.85 7.34,-3.09 9.52,-6.43 -2.15,-2.16 -2.59,-5.37 -0.61,-7.81 1.45,-0.06 2.9,0.05 4.34,0.34 1.39,3.54 -0.62,7.14 -2.77,9.88 -3,3.76 -7.57,6.61 -12.46,6.67 -5.39,-0.87 -8.29,-6.2 -9.16,-11.11 -1.22,-9.18 0.99,-18.62 5.41,-26.68 2.67,-4.5 6.18,-8.76 10.89,-11.22 z"
           id="path1741"
           style="fill:#bec8b7;fill-opacity:1" /><path
           fill="#ffffff"
           opacity="1"
           d="m 462.27,1122.15 c 1.55,-1.18 3.5,-0.12 4.89,0.82 1.77,2.77 1.39,6.2 -0.97,8.51 -1.64,-0.05 -3.68,0.6 -4.92,-0.84 -0.75,-1.13 -1.16,-2.42 -1.68,-3.64 0.63,-1.73 0.9,-3.88 2.68,-4.85 z"
           id="path1743"
           style="fill:#bec8b7" /><path
           fill="#ffffff"
           opacity="1"
           d="m 257.03,1133.04 c 1.21,-3.59 2.21,-9.5 7,-9.45 0.41,0.36 1.23,1.07 1.64,1.43 0.13,5.84 -4.37,10.31 -7.16,15.04 -0.91,2.6 -1.42,5.29 -2.01,7.99 3.42,-0.47 4.83,-3.92 7.36,-5.82 -1.12,3.37 -3.68,6.05 -6.38,8.24 -1.22,1.26 -3.01,0.78 -4.57,0.86 -0.1,-0.92 -0.3,-2.75 -0.4,-3.67 -2.26,1.97 -4.59,4.41 -7.94,3.79 -0.11,-0.85 -0.32,-2.54 -0.43,-3.39 -1.34,1.08 -2.64,2.22 -3.96,3.34 -0.77,-0.03 -1.54,-0.04 -2.31,-0.04 -3.13,-3.89 -1.08,-9.43 1.27,-13.19 1.54,-2.63 5.53,-5.39 7.95,-2.24 0.77,-0.35 2.31,-1.05 3.08,-1.4 l 1.11,1.29 c -0.82,4.09 -2.62,7.95 -3.02,12.13 6.53,-1.57 6.95,-9.59 8.77,-14.91 m 5.1,-5.16 c -0.91,2.23 -1.66,4.54 -1.77,6.99 1.95,-2.54 3.94,-5.36 4.15,-8.67 -1.22,-0.15 -2.15,0.44 -2.38,1.68 m -18.29,8.59 c -2.79,3.47 -4.54,7.91 -4.47,12.4 0.66,-0.11 1.98,-0.35 2.64,-0.47 2.75,-3.21 5.44,-7.44 4.32,-11.84 -0.84,-0.05 -1.66,-0.08 -2.49,-0.09 z"
           id="path1745"
           style="fill:#bec8b7;fill-opacity:1" /><path
           fill="#ffffff"
           opacity="1"
           d="m 383.46,1135.05 c -0.21,-3.54 1.69,-8.45 5.72,-8.66 1.93,1.9 0.83,4.8 1.03,7.21 2.56,0.21 5.46,-2.19 7.5,0.28 -2.64,6.87 -5.68,14.03 -5.17,21.53 2.43,0.21 4,-1.81 5.54,-3.31 1.96,-2.25 4.34,-4.32 5.32,-7.22 1.9,-5.56 5.26,-11.15 10.69,-13.85 3.03,-1.42 6.05,0.67 7.94,2.94 -0.03,-4.03 4.32,-2.29 6.86,-2.61 -0.79,4.93 -2.59,9.63 -3.79,14.47 -0.63,2.94 -2.28,5.83 -1.44,8.93 6.62,-3.77 11.38,-10.55 13.78,-17.69 -3.63,-3.13 -0.86,-8.33 2.31,-10.63 4.07,-0.61 2.45,4.61 2.53,7.08 2.38,0.27 4.56,-1.23 6.92,-0.69 0.03,0.56 0.1,1.69 0.13,2.26 -2.08,5.16 -3.76,10.51 -4.65,16.02 -0.05,1.56 -0.89,3.88 1.26,4.43 2.74,-1.35 4.55,-3.92 6.62,-6.05 4.42,-4.4 4.16,-11.18 6.99,-16.45 1.45,1.34 3.4,1.77 5.23,2.34 -1.39,6.24 -3.94,12.23 -4.7,18.6 5.78,-0.34 7.53,-7.22 12.25,-9.66 0.52,3.26 -2.49,5.53 -3.99,8.11 -3.68,4.13 -8.3,9.72 -14.56,8.02 -0.9,-2.05 -1.16,-4.26 -1.28,-6.45 -2.64,2.53 -5.11,5.71 -8.76,6.75 -2.42,0.67 -5.18,-1.09 -5.3,-3.62 -0.74,-6.96 3.67,-12.94 5.42,-19.4 -1.31,-0.01 -2.61,0.03 -3.91,0.08 -3.58,7.89 -8.1,15.76 -15.16,21.05 -2.27,1.86 -5.31,2.31 -8.1,1.48 -0.57,-1.82 -0.95,-3.69 -1.2,-5.55 -2.67,2.48 -5.32,6.59 -9.48,5.87 -3.03,-1.37 -3.84,-4.8 -4.06,-7.8 -3.69,2.14 -5.79,6.56 -10.06,7.84 -2.52,0.8 -5.46,-0.92 -5.63,-3.61 -0.88,-6.98 3.93,-12.81 5.34,-19.36 -1.27,-0.01 -2.54,0.02 -3.81,0.04 -3.62,8.04 -8.3,16.1 -15.72,21.18 -2.49,1.88 -6.13,2.67 -8.87,0.89 -2.8,-1.73 -3.45,-5.17 -4.28,-8.08 -4.56,3.57 -8.3,9.95 -15,9.02 -0.49,-0.58 -0.99,-1.15 -1.48,-1.7 -0.99,-6.34 2.37,-12.05 3.45,-18.11 -2.05,0.26 -2.95,2.25 -3.9,3.82 -2.95,5.19 -5.75,10.48 -8.16,15.94 -1.66,0.02 -3.32,0.04 -4.97,0.07 1.6,-6.62 3.58,-13.15 5.82,-19.58 -1.19,-0.13 -2.53,0.05 -3.01,1.34 -3.72,5.96 -7.09,12.13 -10.47,18.28 -1.64,-0.06 -3.27,-0.08 -4.9,-0.1 1.5,-5.59 3.92,-11.06 4.24,-16.87 -4.58,6.33 -8.92,13.92 -16.63,16.79 -4.49,1.27 -8.08,-2.58 -9.12,-6.57 -1.29,-6.3 -0.28,-13.39 3.89,-18.46 2.58,-3.1 7.24,-5.07 11.08,-3.35 6.19,4.54 1.89,16.54 -5.81,16.04 -1.22,-0.02 -2.3,-0.57 -3.42,-0.93 -0.63,3 0.59,7.72 4.46,7.44 3.53,-0.2 6.2,-2.93 8.36,-5.45 4.68,-5.23 7.52,-11.72 10.45,-18 2.08,-0.04 4.17,-0.04 6.25,-0.01 -0.55,5 -3.32,9.57 -3.34,14.63 3.31,-5.37 6.31,-11.22 11.44,-15.1 1.31,-1.03 2.98,-0.83 4.48,-0.45 0.04,3.11 -0.22,6.21 -0.3,9.33 2.16,-3.36 4.44,-6.7 7.51,-9.31 1.53,-0.32 3.04,-0.25 4.52,0.2 0.06,6.95 -2.51,13.59 -4.55,20.14 -0.04,1.11 -0.06,2.24 -0.08,3.39 0.34,0.04 1.02,0.11 1.37,0.15 2.8,-2.11 5.44,-4.54 7.51,-7.37 1.16,-3.7 1.57,-7.82 4.34,-10.78 2.58,-3.67 8.08,-6.08 12.14,-3.48 4.57,4.82 1.64,14.27 -4.94,15.53 -1.76,0.37 -3.41,-0.23 -4.92,-1.04 -0.83,3.57 0.88,7.46 4.74,8.08 7.68,-3.01 11.96,-10.68 15.51,-17.65 -0.67,-0.88 -1.35,-1.76 -2.02,-2.59 m -82.7,10.19 c 4.79,0.59 8.96,-4.61 8.5,-9.16 -0.77,-0.6 -1.54,-1.19 -2.29,-1.77 -3.99,2.06 -5.77,6.69 -6.21,10.93 m 64.89,0.05 c 4.84,0.35 8.89,-4.93 7.99,-9.58 -0.9,-0.45 -1.78,-0.88 -2.66,-1.31 -3.48,2.35 -5.35,6.76 -5.33,10.89 m 50.88,-10.75 c -4.06,2.59 -5.6,7.37 -7.07,11.69 -0.85,2.96 -1.97,6.18 -0.98,9.25 2.83,1.32 4.73,-1.93 6.19,-3.79 2.99,-4.59 6.39,-10.08 4.95,-15.76 -0.36,-0.31 -1.07,-0.95 -1.43,-1.26 -0.42,-0.03 -1.25,-0.1 -1.66,-0.13 z"
           id="path1747"
           style="fill:#bec8b7;fill-opacity:1" /></g></g></g></svg>
